/* XPM */
static char *Free_Converter_com_tgm56_croper_ru_43510805[] = {
/* columns rows colors chars-per-pixel */
"64 64 256 2 ",
"   c #050201",
".  c #0C0200",
"X  c #0E0A04",
"o  c #0D0D0C",
"O  c #03060A",
"+  c #140300",
"@  c #140C01",
"#  c #1D0E03",
"$  c #190A05",
"%  c #151205",
"&  c #1B1204",
"*  c #14120B",
"=  c #1D130B",
"-  c #1C1A0D",
";  c #1F1806",
":  c #0C0E11",
">  c #0E1217",
",  c #131414",
"<  c #1A1512",
"1  c #1C1A15",
"2  c #13151A",
"3  c #15191D",
"4  c #1B1C1B",
"5  c #181917",
"6  c #220E04",
"7  c #240D05",
"8  c #231205",
"9  c #231905",
"0  c #24140B",
"q  c #28160B",
"w  c #241A0C",
"e  c #2B1A0C",
"r  c #2B1904",
"t  c #361B06",
"y  c #221711",
"u  c #231C14",
"i  c #2B1C12",
"p  c #231E1B",
"a  c #271A1A",
"s  c #311E14",
"d  c #360D00",
"f  c #1D221C",
"g  c #1B2217",
"h  c #2C210C",
"j  c #37240C",
"k  c #242115",
"l  c #2C2214",
"z  c #23221C",
"x  c #2B251B",
"c  c #2C291D",
"v  c #27291A",
"b  c #332315",
"n  c #322915",
"m  c #33251A",
"M  c #342A1C",
"N  c #3B2B1C",
"B  c #3B2A16",
"V  c #3B311B",
"C  c #151921",
"Z  c #1B1D22",
"A  c #171A23",
"S  c #0F1821",
"D  c #231D23",
"F  c #281E24",
"G  c #1E2222",
"H  c #1D2821",
"J  c #1E2129",
"K  c #232423",
"L  c #2A2322",
"P  c #252A23",
"I  c #2B2A23",
"U  c #24252A",
"Y  c #2B2C2B",
"T  c #29262A",
"R  c #342C22",
"E  c #3B2D23",
"W  c #322B29",
"Q  c #343124",
"!  c #3B3323",
"~  c #3B352B",
"^  c #3A362B",
"/  c #373636",
"(  c #2D2A30",
")  c #462B18",
"_  c #43341C",
"`  c #493418",
"'  c #57381B",
"]  c #4A270C",
"[  c #643C1C",
"{  c #433324",
"}  c #43342A",
"|  c #4B3A2A",
" . c #473A27",
".. c #563D26",
"X. c #443B31",
"o. c #473126",
"O. c #663F27",
"+. c #4A412C",
"@. c #53442C",
"#. c #5A452A",
"$. c #454132",
"%. c #4C4434",
"&. c #4A453B",
"*. c #534532",
"=. c #534A35",
"-. c #5C4B33",
";. c #544C3B",
":. c #5A4638",
">. c #5C533E",
",. c #5C5138",
"<. c #684629",
"1. c #654C37",
"2. c #744A32",
"3. c #67553A",
"4. c #72553C",
"5. c #725B3D",
"6. c #7A5638",
"7. c #724C28",
"8. c #77663C",
"9. c #6D653B",
"0. c #393C44",
"q. c #494846",
"w. c #5A5545",
"e. c #4F5056",
"r. c #675846",
"t. c #745D43",
"y. c #7B5C44",
"u. c #765746",
"i. c #675E53",
"p. c #6B624B",
"a. c #746245",
"s. c #7B6444",
"d. c #7B6B43",
"f. c #7E6B4A",
"g. c #76664B",
"h. c #6C6758",
"j. c #7D6B53",
"k. c #796756",
"l. c #7A735B",
"z. c #7E754D",
"x. c #5D6069",
"c. c #726D69",
"v. c #87583B",
"b. c #8F5636",
"n. c #88613D",
"m. c #865C44",
"M. c #965F42",
"N. c #8B6349",
"B. c #826C4D",
"V. c #896648",
"C. c #916C4C",
"Z. c #98654A",
"A. c #98724E",
"S. c #836C52",
"D. c #896957",
"F. c #936B52",
"G. c #996B54",
"H. c #8A7355",
"J. c #8C745B",
"K. c #877758",
"L. c #937354",
"P. c #947A5C",
"I. c #9B7A5B",
"U. c #9B7755",
"Y. c #837548",
"T. c #A66847",
"R. c #A27552",
"E. c #A47B5C",
"W. c #A87958",
"Q. c #B77B55",
"!. c #AD6F51",
"~. c #887966",
"^. c #967C63",
"/. c #8C726A",
"(. c #A27C62",
"). c #A97E66",
"_. c #BD7D64",
"`. c #AC835B",
"'. c #A7865D",
"]. c #B3845D",
"[. c #BA8A5D",
"{. c #9A8369",
"}. c #998973",
"|. c #968B72",
" X c #A38464",
".X c #AB8464",
"XX c #A4846A",
"oX c #AC8C6B",
"OX c #AA8968",
"+X c #B28B63",
"@X c #BB8C63",
"#X c #B48C6B",
"$X c #BB8C6C",
"%X c #B68465",
"&X c #B3926D",
"*X c #BD936B",
"=X c #B89569",
"-X c #A98B74",
";X c #B88B73",
":X c #AB9277",
">X c #BC9474",
",X c #B4957A",
"<X c #BB957B",
"1X c #BB9A7D",
"2X c #B99975",
"3X c #AA906E",
"4X c #9D835E",
"5X c #C4835A",
"6X c #C48B68",
"7X c #C4936B",
"8X c #CA956C",
"9X c #C6976A",
"0X c #D2986C",
"qX c #C58F74",
"wX c #C29473",
"eX c #C59A74",
"rX c #CC9B74",
"tX c #C49B7B",
"yX c #CB9B7B",
"uX c #C99577",
"iX c #D39D74",
"pX c #D39B7A",
"aX c #CBA374",
"sX c #C9A57C",
"dX c #D5A075",
"fX c #D3A37C",
"gX c #DAA47B",
"hX c #D8AA7C",
"jX c #C8A06F",
"kX c #B79C87",
"lX c #AA9786",
"zX c #B9A490",
"xX c #C99C85",
"cX c #D29F80",
"vX c #CBA484",
"bX c #C7A588",
"nX c #D3A482",
"mX c #D5AA84",
"MX c #D4AB8B",
"NX c #DBA987",
"BX c #DBB48C",
"VX c #DAB186",
"CX c #C9AB93",
"ZX c #D6AD92",
"AX c #D9B597",
"SX c #E1AB85",
"DX c #E3B38D",
"FX c #E4B388",
"GX c #E3B896",
"HX c #F2BE97",
"JX c #D8BBA3",
"KX c #E5BDA4",
"LX c #ECC29B",
"PX c #F6C9A6",
"IX c #EEC6AA",
"UX c #DCC1AC",
/* pixels */
"O O     + + $ ) O.s 6 + + . o . . N k./.i.X.-   X X X X X X X X % % % = 6 6 0 6 7 7 7 7 7 7 = 0 0 < 0 7 7 7 y $ 7 y 7 0 7 7 7 7 ",
"o o   . a o.:.u.G.o.$ 7 E =   $ + | k.k.;.W x < < < < 5 1 - < * * - % & = # 6 6 7 7 7 7 7 $ 6 6 = 0 0 0 0 7 7 y q 7 0 0 a 7 q q ",
". . + N i.D.G.).G.] 7 | r.X.= X + E *.{ y < y < 1 1 4 4 1 1 1 5 1 1 - - = $ 6 $ 7 7 7 7 6 6 0 0 7 = 0 0 7 y 0 0 q 0 0 q q 7 0 q ",
"+ + ) D.).).G.G.2.d ) D.r.r.%.+ 6 s x = = a z < 4 4 1 5 5 5 5 5 1 1 1 1 < = = = $ 0 $ 7 0 6 6 6 7 7 0 y a q q 0 0 0 0 7 q q q 7 ",
"] O.M.(.).).G.b.2.] O./.1.i.w.0 m u 0 y p c K f 4 4 4 4 4 4 5 4 5 5 4 4 a 1 < = = = 7 0 0 6 8 # y y 0 0 0 a y 0 7 0 0 7 7 7 0 q ",
"M.Z.Q.6X_.!.Z.b.G.m.v.m.u.:.o.a u y < p 4 < 5 f f f Z f 3 f f G 5 4 f z p p y y $ = 0 0 6 0 8 6 0 y 0 y 0 7 0 0 0 0 7 0 0 q q 7 ",
"!.T.5X0X6XT.M.M.Z.Z.u.:.:.m 0 a p p p z 1 1 4 z G 4 4 4 f G f f 4 g f K K z D a < $ = = 0 6 0 0 0 y 0 0 0 0 0 0 7 7 0 7 7 d 7 q ",
"T.Q.0X0XT.b.b.v.v.u.u.o.d $ a a 1 p 1 5 5 K z 4 p G G f f z K P z f z f p f z D < < = * 6 0 6 0 0 7 7 y 0 0 0 0 7 0 7 y 0 q q q ",
"!.Q.0X_.b.).).m.D.u.) q a a D a 4 5 P L > 4 I 4 K K z 1 z c I I c v v c c z 4 u p y - $ 6 0 0 0 6 0 0 q q e e w 0 7 6 8 7 6 8 B ",
"5X5X0X6XM.!.xX).u.o.s a a y 1 K 4 , 4 P z z L k k k m M k = ; i m x l z k x v z 1 1 < - & 0 0 0 y 0 0 q y y q q 0 0 8 7 7 6 q m ",
"Q.5XqX6XM.v.)./.o.a 7 a K 4 4 K 4 G z G p u c R M e 8 h B _ | 3.3.-.| N l k v v u u u y = & 0 q 0 y 0 y q q q q q 7 q 7 6 6 e N ",
"5X0XcX_.m.m.D.:.a a a 2 f K G 3 5 U P a u x l i r j ` 3.j.H.H.H.J.S.a.-.{ V l k v x v z y $ = q 0 y q 0 q 0 q 0 0 q q 7 6 7 b o.",
"5X0X0X!.v.lXm.a u a K f f G f 4 f G z z R M i r _ 4.^.:X3XOX4XU.A.L.L.Y.5.@.V w z l c z u = = y y 0 0 0 0 0 r q 6 0 r 8 6 e ) | ",
"5X5XqX!.<.u.E y a 1 4 K G g g H G 4 f c l h { 3.L.XX&X+XOX+X=X+X`.W.'.A.S.9.=.{ c k u l x y y y 0 e e q q 0 0 0 6 q r 7 r b o.| ",
"0X0XpXqX2.t 6 m x a 4 f f g 1 P G z I c u | K.:X&X&X&X@X9XjX*X[.@X[.].4XL.f.r.>.$.Q z v L p y y 0 w 0 0 0 q 8 0 6 q r 7 e N o.| ",
"6XpXpXqXu.t i u 1 K f g 5 f z 4 K K I i _ ~.bX2X2X2X2X9X9X=X9X9X5X[.[.+X'.L.a.,.>. .c c c x u < - q 0 y y q e e 7 e e q e m o.o.",
"6X8XcXqXD.a a a z z z g g g p D Z W u b }.2X&XsXaXaXjXjXaXaXjX9X9X@X].`.`.U.C.t.1.-.N = u c p p % 0 y - y i q 0 0 s q q m N N o.",
"5X6XqX;XD.a 1 Z z u g g g f D F K Y i p.:X*XjXjXhXhXhXhXhXaXaXjXaX9X[.].].W.A.V.t.3.| m x I K f < - y y y 0 i i q s i t N ) N | ",
"9X9XpX;XD.s a 4 z z g f H g Z F L a | :X2X2XsXdXhXFXFXVXhXhXaXaXrXjX*X[.].'.I.I.H.t.*.m u p K z 1 * - y y 0 y i q q i s N N N | ",
"0X0XgXqXD.m u 4 p p z f H H L F M q D.<X#XfX9XhXhXVXFXNXsXaXaXrX8X8X7X+X+X+X.XXX^.k.r. .u 1 P K u = = y y 0 q i q q q b N b N { ",
"0XgXSXuXD.b a a z z z f H H L L s ..:X#X$XdX9XgXSXgXcXfXpXpX8X8X$X7X*X+X#X#X#XXX^.j.r.| c u v c z - & = y y q q q 7 q m B b m o.",
"0XpXpXqXD.m y p a p K f H G L F t D.1X#XrX6XgX0XgXgXpXcXcXcXyXqX7X$X7X*X>X2X-X XB.:.E i & % 1 g u w = = y e q 0 i q s N b b N N ",
"dXdXgXqXD.j u z x F z G H H P m o.oXwX7XrX8XdX8XcXNXnXZXZXNXcXcXuXuXwXwXtX;X XV.#.B 6 & k k - - y u y = 6 y q 0 q q b N b b N m ",
"gXgXNX;XN.b w k a D K G H H K m u..X2X9X7XfX8XgXcXNXZXGXGXZXZXNXmXnXtXtXtX-XF.1.j t r V w.>.l & - i l - # y e 0 q q b m i b N b ",
"gXfXNX$X1.j k z F a K Z H H v N P.&XeX=X=XrXrXfXMXAXKXAXJXKXGXMXtXMXyX<X>X(.5.4.) ) g.{.p.p.+.@ l = m - 0 0 0 q i 0 E E q m m b ",
"NXZXuX).4.e - z F a L G H P v |  X+X+X=X9X9XjXsXbXbXCXJXAX1X.XE.$XG..X2X<XOXS.<.` ~.j.,.@.-.r.i i - R w 0 y 7 0 s q o.E s m N m ",
"(.CXxX).r.8 - g D a T 4 H P v 3.3X'.'.+X=X2X2X#X1XkXbXlXs.' [ 8.A.W.LXKX#X7.] 7 -.3X1.B j ` t._ q ; E y 0 w 0 0 q q o.E i m R M ",
"o.).zX).*.; z 4 D D T 4 P v h f.4X+X+X'.+X*X:XL.^.S.#.j t ] ' <.2.[ v.6.I.<.t ' V.4.#.' ..4.t.#.e = V 0 & 0 0 q q i } M i m R M ",
"$ :.lX/.o.a G f D D ( D F F n K.4X'.'.=XOXI.^.f.....| _ ..6.C.A.E.+XA.t m.bXP.t t.2.5.H.F.L.L.s.{ i N = 6 y q q 0 s } m l E R E ",
"$ a /.k.a a g f D F F F L l +.{.'.4XI.&XU.6.m.s.J.D.J.^.-XXXU.C.+X`.wX8.H.bX&X<.] V.L.I.(.L.E.H.>.N M 8 6 0 7 q 6 s } m m } ! R ",
"D $ } X.u g g G D F F ( c k ,.4X X4X4XOXn.<.^.lXlXlXlXkXJ.<.<.M.'.'.2X6.6.bXbXP.j m.E.U.L.U.R.F.g.M m # 0 0 7 q 0 m } m R } E R ",
"< < < a 1 p P Z D ( F ( z ; r.^.P.3X'.4X8.V.JXIXlX)././.y.<.7.n.E..XR.' v.vX<X<Xn.' E..XA.#XE.U.k.B q # i q $ 0 q M } m M } R x ",
"3 C 1 1 u p 4 4 Z P T I g Q ;.{.|.^.5.#.) + JXUXD.3.y.4.[ 6.n.R.`.@X].n.T.yXnXsXE.' v..X#XxX+XI.5.:.r + 6 0 y 6 y m N s M ^ V v ",
"A 2 3 , 1 p p p p K G P g v ^ =.B ) j h 6 6 kXJX4.6.L.#X=XR.A.R.6X8X8X].@XyX7XwXwXm.[ Z.R.C.U.C.I.y.t 6 6 = y * 0 x N l m { M M ",
"3 S 4 5 1 p p p K K f H P - ; 9 t j ` s. X,XkXE.L.<X$X>XeX`.].@X0XdXgX6X@X7X>XyXwX>Xv.A.tXtXZXbX,XJ.) 6 6 y 0 = = i N s b ! c R ",
"S 3 2 2 1 D K p K K H H v % % r ' A.2XZXZXMXtXnXC.yXvX9X*X@X9X0X9XhXSX@XQ.$XqXtXyXvXE.m..XAXZXvX<X^.) 6 0 0 * - 0 s N s l M m ! ",
"S 2 2 2 5 a D 4 Z G P P v ; 9 @.4X=X=XeXZXnXnXZXW.Q.nXpX8X0X0X0XhXFXjXQ.W.$XrXxXPXKXvXN.C.MXvXbX,X{.| 6 0 6 = y e l N n b M l ^ ",
"S S 2 2 2 D K K U K Y P v Q 9 -.4X=X9XyXDXrXmXDXFX].rXgXdXgXdXhXdX6XT.W.qXyXnXnXZXvX.XN.V.#XbX1X,X:X#.# 6 = $ y u i b l l l l ^ ",
"S 2 2 > 5 p K K P P P z c p.9 ` C.+X>X*XnXnXSXDXFX8X6XgXFXFXgXhXQ.Q.!.7XSXnXuX;X>X;XF.V.H.I.OX^.XX:X>.# & $ $ - 0 e h e s l l ~ ",
"S 2 2 > 5 Z K G G f P z $.:Xt j n.E.*X#XyXSXNXDXGXHX8X[.8X6X9X6XiXgX6X%XqX@X;X%XE.E.m.<.6.V.6.2.B.XX1.6 & = % 0 0 8 q q i l x ~ ",
"> > , , 5 p p 4 H Y P k *.~.3.r <.I..X&X#XvXMXSXBXBXDXHXPXPXPXFXiXSXSXyX].W._.;X).>XF.O.<.2.2...S.{._ & & & % & ; e r 6 i b M Q ",
"2 , , 5 z Y P K K K z k l.:XP.t ..Y. X-XoXtXvXZXMXMXGXPXPXPXLXNXfXNXSXnXqX).(.U.).N.F.N.D.m...6.^.P.B & = - ; ; & 9 9 & 8 k c Q ",
"< : < L Q I z z P z c m lXCXkX#.j 3.^.}.XX,XbXZXMXMXGXIXPXIXGXyXrXnXnXqX).!.R.(.G.m.(.F.m.m.m.lXkXk.h # w @ - ; & 9 r 8 0 y x x ",
"< $ L &.&.R g K K c z E zXzXZXV.j @.j.K.J.XX,XbXMXMXBXAXLXLXAX2XeXrXwX@XE.W.(.).;XE.F.C.u.2.G.).zX1.8 & w @ - % & ; q e q i s a ",
"X c ;.i.w.$.Q P z x y | lX,XvX Xn V >.g.j.^.-X1XbXbXVXBXAXGXhX+XR.R.W.+X*X;X;X_.F.m.Z.).G.2.D.;X-X .r r v k n ; 9 & 6 6 ; i c a ",
"& %.h.w.;.q.^ u c c w | -X1XxX,X_ 9 ! @.a.J.XX2X1XsXVXBXBXLXsX'.#X*X>X*X#XE.).).xXxXKXkXm.O.2.).S.B e N ^ ^ %.! { n h e # w L u ",
"V &.w.,.=.+.^ g x L x | -XxXxXxXp.; 9 n -.s.P.#X2XsXsXVXBXLXsX'.+X+X.X+X).#XbXKXIXZXZXG.m.m.m.).t.h 8 +.;.w.w.>.r.=.@.{ i l R a ",
"@.! ! =.=.! Q ^ u x W N /.kXbXzX:Xn & & ) -.s.P.3X2XsXsXhXLXBX=X*XR.v.v.R.%XxXxXCXxXG.Z.D.2.m.).t.8 & %.w.w.w.p.r.w.r.r.V M E s ",
"@._ @. .=.+.$.^ c K L L X.c.lXzXzX%.$ # 9 B ,.z.P.P. X3XsXBXBXhX7X8X6X!.M.Z.!.!.!.!.T.G.G.m.N.(.,.@ l ^ $.w.>.w.>.,.,.@._ +.+.r ",
"9.-.#.B V n Q Q Y c L L a a W / i.l.b . 9 h  .>.p.g.d.L.3XsXBXBXfXSXSXuX6X_._._._.!.G.Z.Z.N.F.{.:.% c $.%.w.=.;.;.=.,.@.+.@.@.j ",
"8.9.-.V V v n v v 1 z L a , < < c ~.w.. & l l n +.@.3.H.'.jXsXhXmXDXHXDXNXpX8X6X_.!.M.m.Z.G.I.XX%.% k c I X.$.;.=.%.%.,.,.,.=.-.",
"#.-.3.-.@.+._ v w i u 1 < a F a u ;.~.R X l ; ; n _ ,.H.|.3X2X2XmXVXDXDXDXcXyX7X_.(.Z.C.G.XXoX{.X.* % * % k Q X.$.+.$.@.=.+.+.+.",
"#.4.a.a.g.g.>.=.V n c x < 5 D : * v c.w.* - % v ! ! =.a.H.P.'.:X&X2XsXBXGXBXMXvXxX;X;X-X3X,X3Xl.c < < * X * % < u ^ ^ ^ %.w.i.>.",
"4.a.5.f.f.z.z.z.p.=.X./ T < 5 F < 1 c X./ < 1 v k l l N _  .#.1.9.8.U.2XbXBXAXGXKXZXCXbX1X}.K.>.p 5 5 < * o * * < % z ^ ;.w.i.h.",
"s.5.3.a.d.Y.Y.z.{.p.r.w./ < 2 D 4 K   f / g P 4 z I R ! V V V B B ` #.8.P.3XsXCXJXCXCXzX|.z.>.R 1 4 5 > : , g 5 4   X I Q I / / ",
"4.1.<.8.d.K.z.P.z.z.l.k.q.( D 2 Z G K , : G T H g z I v c V E N j h h _ -.a.4X:XkX-X:X}.p.=.! % 5 3 2 2 > 5 5 2 , , 4 > * Y / g ",
"s.5.4.5.8.Y.d.8.9.z.l.p.$./ H H 2 4 U H > > > f K Y g W Q Q ~ X.V V v n V @.3.j.j.g.r.+.! 1 % * 5 Z Z 2 2 Z C 2 Z : C : , q.c.J ",
"B.V.d.d.d.d.8.8.9.,.p.p.w./ G U 2 A J J Z Z Z G f G G P z < Q &.^ $.$.^ h 8 j _ j h 8 & @ X X : 2 Z Z 3 2 4 C 2 3 4 , C > x./ C ",
"4.a.d.8.8.9.8.8.z.9.p.h.h.q.K K A A A A J G Z 3 2 , / / U * 4 / H Q ^ Q M h 9 e & 8 ; k X * , , > 3 Z Z 3 C A A 2 A 2 J 0.x.A A ",
"5.a.n.8.9.7.8.d.d.9.l.|.l.i.~ z G J J J J G 3 2 5 : / / / 4 5 f P P P v i 9 6 & 9 V ^ &.% 5 > : : 2 Z G Z C Z Z A > J Z x.e.J U ",
"H.K.Y.f.a.8.s.d.5.g.l.~.l.i.~ Y ( U U U U J D Z Z > 1 L T / 4 5 Y Y z - & i ! =.g.~.{.c.1 * X O : , 4 G D Z C Z A S A 0.x.A ( A ",
"P.H.f.f.f.B.B.B.5.3.j.K.k.;.M c T T ( U D Z D F 4 U , 2 G q.T 5 5 P &.h.l.|.:X:X~.|.~.i.- o 5 Z : : 4 Z U Z 4 K S J J x.0.S J S ",
"K.z.s.d.Y.H.K.B.f.g.K.~.l.w.V - 4 D J K D Z D 4 A q./ 4 T / H , 4 , - v +.p.l.|.{.|.~.;.u % o X , o , G U Z Z Z 2 U e.e.J J J J ",
"P.K.B.B.K.P.K.B.j.~.{.~.~.l.%.u 1 C D D D Z 2 , p c.e.1 4 2 4 o , * % % % ; 9 9 r B B w - u < o 5 o > G T D Z Z F C c.J A A A J "
};
